# xmcd
#
# Track frame offsets:
#	150
#	24244
#	44748
#	63854
#	89549
#	118090
#	142061
#	163328
#	189301
#	205809
#
# Disc length: 3030 seconds
# Revision: 0
# Processed by: cddbd v1.5.2PL0 Copyright (c) Steve Scherf et al.
# Submitted via: dBpowerAMP V12.0
#
DISCID=900bd40a
DTITLE=Lothar Kosse - Prophecies
DYEAR=2013
DGENRE=Blues
TTITLE0=Sparks
TTITLE1=Mighty Waters
TTITLE2=Ich steh an deiner Krippen hier
TTITLE3=Twinkle
TTITLE4=Morph
TTITLE5=Prophecy
TTITLE6=Silent Storm
TTITLE7=This love will never fade
TTITLE8=Toucan
TTITLE9=Blue
EXTD=
EXTT0=
EXTT1=
EXTT2=
EXTT3=
EXTT4=
EXTT5=
EXTT6=
EXTT7=
EXTT8=
EXTT9=
PLAYORDER=
